<?xml version="1.0" standalone="no"?>
<!DOCTYPE svg PUBLIC "-//W3C//DTD SVG 20010904//EN"
 "http://www.w3.org/TR/2001/REC-SVG-20010904/DTD/svg10.dtd">
<svg version="1.0" xmlns="http://www.w3.org/2000/svg"
 width="1600.000000pt" height="1600.000000pt" viewBox="0 0 1600.000000 1600.000000"
 preserveAspectRatio="xMidYMid meet">

<g transform="translate(0.000000,1600.000000) scale(0.100000,-0.100000)"
fill="rgb(255, 90, 20)" stroke="none">
<path d="M7730 15993 c-1908 -68 -3691 -793 -5108 -2076 -158 -144 -485 -475
-618 -627 -858 -981 -1453 -2110 -1763 -3347 -239 -955 -299 -1964 -175 -2953
193 -1546 850 -3019 1876 -4210 1257 -1458 3008 -2422 4893 -2695 416 -60 696
-79 1160 -79 397 0 571 8 900 45 2958 328 5503 2297 6577 5089 280 729 446
1481 510 2310 16 212 16 896 0 1100 -29 360 -68 660 -123 945 -340 1778 -1267
3380 -2639 4563 -1523 1313 -3493 2007 -5490 1935z m460 -3031 c155 -51 30 69
2408 -2307 1217 -1215 2234 -2237 2259 -2270 89 -117 136 -252 136 -395 0
-111 -15 -174 -70 -290 l-45 -95 -2241 -2241 c-2099 -2098 -2246 -2243 -2312
-2276 -245 -125 -500 -105 -710 55 -33 25 -1055 1042 -2270 2259 -2386 2388
-2257 2254 -2308 2413 -32 102 -32 302 1 395 58 163 -13 87 1621 1723 833 834
1520 1517 1526 1517 5 0 265 -255 576 -566 l567 -567 -13 -31 c-47 -112 -57
-328 -21 -461 53 -198 194 -374 377 -470 l69 -36 0 -1373 0 -1372 -47 -23
c-162 -78 -301 -227 -367 -395 -83 -209 -75 -418 26 -626 44 -91 62 -115 142
-196 78 -78 106 -98 186 -137 52 -26 127 -54 165 -63 96 -23 268 -23 360 1
249 63 442 238 526 473 123 348 2 704 -307 904 l-64 41 0 1361 0 1361 520
-520 c366 -366 518 -524 514 -535 -22 -53 -45 -168 -48 -242 -13 -324 181
-621 480 -734 181 -68 352 -70 539 -4 227 79 413 287 472 528 24 98 21 275 -6
375 -59 222 -229 415 -442 502 -144 58 -354 71 -488 30 l-54 -17 -555 555
-555 555 19 73 c25 97 25 277 0 369 -9 36 -38 108 -63 160 -40 80 -61 109
-137 186 -77 77 -106 98 -186 137 -52 26 -124 55 -160 64 -89 24 -282 24 -370
0 l-64 -18 -575 575 -574 574 442 449 c243 246 470 471 503 500 70 60 177 116
263 137 87 22 270 16 355 -12z"/>
</g>
</svg>
