<?xml version="1.0" standalone="no"?>
<!DOCTYPE svg PUBLIC "-//W3C//DTD SVG 20010904//EN"
 "http://www.w3.org/TR/2001/REC-SVG-20010904/DTD/svg10.dtd">
<svg version="1.0" xmlns="http://www.w3.org/2000/svg"
 width="300.000000pt" height="296.000000pt" viewBox="0 0 300.000000 296.000000"
 preserveAspectRatio="xMidYMid meet">

<g transform="translate(0.000000,296.000000) scale(0.100000,-0.100000)"
fill="rgba(0, 65, 0, .6)" stroke="none">
<path d="M1260 2810 c-25 -5 -67 -12 -93 -16 -32 -5 -46 -11 -43 -19 5 -13
-33 -34 -74 -41 -60 -10 -72 -17 -109 -64 -44 -56 -81 -144 -81 -193 0 -25 -8
-38 -35 -60 -45 -35 -81 -83 -100 -133 -8 -22 -10 -31 -2 -20 65 99 148 169
189 159 39 -10 78 -55 94 -109 28 -99 -18 -263 -96 -339 -33 -33 -47 -39 -92
-43 -47 -3 -56 -1 -76 21 -13 14 -29 41 -36 61 l-12 36 -82 -56 c-100 -69
-132 -104 -132 -148 0 -36 12 -49 80 -88 25 -15 55 -37 68 -50 l22 -24 -78
-62 c-198 -155 -224 -276 -68 -313 93 -22 93 -21 13 -102 -40 -39 -84 -94 -97
-121 -22 -47 -23 -51 -7 -78 l17 -29 -84 -127 c-121 -184 -115 -161 -60 -240
116 -164 342 -355 537 -454 106 -53 290 -113 406 -132 130 -22 129 -22 137 19
8 44 17 51 89 70 118 30 309 13 408 -37 32 -16 44 -17 72 -8 19 6 36 19 39 28
11 36 26 191 26 268 l0 81 70 7 c129 12 307 83 483 195 62 39 75 44 140 47 89
4 235 32 264 50 25 16 49 110 37 146 -4 13 -6 48 -5 79 2 47 -2 61 -22 85 -13
16 -27 43 -31 60 -8 35 -50 79 -84 87 -19 4 -104 -11 -164 -29 -15 -4 -18 1
-18 26 0 48 -25 86 -73 109 -53 26 -108 27 -129 4 -30 -34 -31 -61 -3 -97 40
-53 43 -95 9 -166 -26 -53 -34 -61 -73 -75 -25 -8 -60 -15 -79 -15 -29 0 -33
3 -26 17 4 10 9 39 12 64 8 92 -52 181 -164 244 -103 58 -128 77 -113 85 8 4
48 9 89 11 l75 4 8 -40 c5 -22 11 -50 13 -63 7 -35 47 -49 80 -28 28 19 62 86
71 143 3 19 17 46 30 59 85 85 84 275 -2 342 -47 37 -98 47 -166 33 -55 -11
-61 -10 -81 9 -12 11 -44 30 -70 42 -41 19 -48 26 -48 51 0 26 2 29 26 23 83
-21 84 -21 84 14 0 17 -8 44 -19 58 -15 22 -19 47 -19 127 -2 116 -6 141 -35
213 -13 32 -27 52 -37 52 -9 0 -25 19 -37 44 -12 24 -50 75 -85 112 -35 38
-54 62 -44 54 15 -12 20 -12 24 -2 3 11 7 11 21 0 10 -7 -1 4 -23 25 -55 52
-162 101 -285 131 -114 28 -272 40 -341 26z m157 -86 c205 -42 335 -107 463
-234 55 -55 85 -93 86 -108 1 -22 0 -22 -30 7 -59 57 -118 61 -172 10 l-22
-20 -40 20 c-22 11 -80 32 -129 46 -62 18 -92 32 -103 48 -34 51 -98 111 -135
128 -108 50 -223 1 -304 -127 -22 -36 -29 -40 -48 -33 -27 10 -29 38 -8 98 59
169 188 217 442 165z m-237 -196 c-25 -46 -47 -98 -74 -172 -5 -15 -11 -10
-31 30 l-24 48 21 35 c31 53 59 82 93 97 45 20 45 18 15 -38z m-233 -50 c-3
-8 -6 -5 -6 6 -1 11 2 17 5 13 3 -3 4 -12 1 -19z m371 -228 c33 -51 104 -201
98 -207 -3 -3 -259 18 -264 22 -1 1 6 24 16 51 11 27 27 85 37 129 24 116 22
112 52 84 14 -13 42 -49 61 -79z m726 59 c9 -48 8 -59 -9 -53 -9 4 -15 0 -16
-7 -1 -16 -37 59 -38 79 -1 7 11 12 28 12 24 0 29 -5 35 -31z m-139 -261 c8
-55 10 -54 -78 -37 -36 8 -57 17 -57 25 0 17 12 18 27 3 19 -19 57 -6 71 24
11 23 11 34 2 58 -7 16 -16 29 -21 29 -15 0 -10 16 14 46 l22 29 6 -65 c3 -36
10 -86 14 -112z m-825 60 c-16 -67 -51 -137 -91 -183 -47 -53 -46 -35 1 26 27
36 49 82 66 137 28 92 44 104 24 20z m61 -116 c49 -32 93 -79 159 -172 83
-117 202 -201 325 -231 28 -6 59 -19 70 -29 27 -23 40 -30 78 -41 l31 -9 -35
30 c-72 59 -79 149 -15 207 31 29 43 33 89 33 31 0 92 -12 147 -30 93 -29 172
-41 140 -20 -25 16 75 55 142 55 95 0 143 -52 142 -155 -1 -78 -33 -136 -87
-160 -61 -27 -252 -49 -226 -26 2 2 27 17 54 35 73 45 32 38 -111 -20 -166
-67 -213 -76 -294 -59 -124 26 -350 152 -497 277 -66 56 -167 179 -158 193 3
5 19 10 36 10 33 0 38 14 10 30 -39 20 -96 12 -142 -21 l-44 -32 47 47 c26 26
53 63 60 82 6 18 17 34 23 34 6 0 31 -13 56 -28z m-478 -44 c-69 -71 -72 -110
-15 -172 24 -25 19 -23 -37 13 -35 23 -68 41 -73 41 -18 0 -6 28 25 57 32 30
128 102 137 103 2 0 -15 -19 -37 -42z m242 -83 c-16 -8 -37 -14 -45 -14 -8 0
-1 7 15 14 17 8 37 14 45 14 8 0 2 -7 -15 -14z m-11 -27 c23 6 43 9 45 6 2 -2
3 -24 3 -48 -1 -24 2 -55 7 -68 l9 -23 9 23 c8 21 12 17 53 -45 52 -79 243
-279 348 -364 51 -41 82 -75 101 -111 39 -76 101 -112 194 -115 57 -1 81 -8
144 -39 89 -44 169 -53 283 -34 59 10 80 18 103 41 34 34 32 59 -10 124 l-26
40 36 -34 c51 -49 70 -93 65 -153 -8 -81 -29 -95 -223 -153 -104 -32 -129 -30
-243 19 -300 126 -689 414 -874 645 -78 97 -119 180 -126 253 l-5 58 33 -17
c28 -13 41 -14 74 -5z m136 -98 c11 -22 18 -40 15 -40 -2 0 -14 18 -25 40 -11
22 -18 40 -15 40 2 0 14 -18 25 -40z m-247 -83 c27 -61 27 -65 16 -136 -10
-67 -6 -182 8 -218 3 -7 -2 -13 -11 -13 -10 0 -34 -8 -55 -18 l-39 -19 -6 75
c-4 40 -4 106 -1 145 8 82 43 247 53 247 4 0 20 -29 35 -63z m-185 -99 c-57
-67 -88 -113 -88 -127 0 -7 19 -30 43 -51 l42 -40 -64 20 c-70 21 -81 31 -73
64 4 19 165 186 178 186 3 0 -14 -24 -38 -52z m873 -127 c30 -10 74 -28 99
-40 43 -19 43 -21 15 -20 -16 0 -66 18 -110 39 -87 43 -89 51 -4 21z m845 -44
c-4 -35 -37 -97 -52 -97 -8 0 -16 18 -20 48 -9 59 -10 56 18 64 45 12 56 9 54
-15z m-395 -54 c2 -24 2 -25 6 -5 2 12 8 22 13 22 13 0 -3 -39 -35 -90 -38
-60 -55 -53 -55 20 0 54 3 62 23 70 37 15 47 11 48 -17z m-569 -236 c43 -29
77 -55 78 -58 0 -4 -21 -10 -47 -14 -27 -4 -70 -16 -98 -26 -27 -10 -54 -19
-58 -19 -18 0 -127 260 -127 302 0 5 39 -23 88 -62 48 -39 122 -95 164 -123z
m-702 138 c0 -3 -15 -19 -34 -35 -19 -17 -60 -62 -92 -101 -32 -39 -60 -67
-62 -61 -2 6 1 19 7 30 36 67 181 201 181 167z m70 -62 c-95 -104 -317 -416
-334 -470 -20 -64 120 -233 404 -487 56 -50 59 -55 25 -35 -81 46 -215 142
-292 208 -104 90 -223 236 -223 274 0 34 173 287 269 392 41 45 189 175 199
175 2 0 -19 -26 -48 -57z m1140 -350 c34 -9 64 -22 66 -27 2 -6 7 -50 12 -99
7 -76 6 -86 -8 -82 -60 18 -121 25 -230 25 -127 0 -221 -15 -293 -47 -20 -9
-39 -14 -42 -11 -3 2 -18 49 -34 104 -17 54 -42 128 -56 163 -14 36 -25 68
-25 72 0 13 130 50 200 57 l65 7 141 -72 c78 -40 170 -80 204 -90z m-840 -323
c16 -80 30 -156 30 -169 0 -25 0 -25 -34 8 -28 27 -35 42 -40 93 -8 67 -43
173 -87 259 l-28 56 42 30 42 29 23 -80 c12 -45 36 -146 52 -226z m-171 142
c38 -76 75 -181 66 -190 -2 -2 -26 31 -54 74 -27 44 -63 98 -80 121 l-31 42
22 15 c12 9 26 16 30 16 4 0 25 -35 47 -78z m1029 -77 l72 -17 0 -108 c0 -95
-16 -310 -24 -317 -2 -2 -24 6 -50 17 -106 48 -282 62 -411 35 -38 -8 -72 -15
-74 -15 -2 0 -1 27 2 60 5 59 -7 244 -18 280 -4 14 6 22 49 40 125 50 303 60
454 25z"/>
<path d="M1231 2229 c-45 -48 -29 -141 25 -155 64 -16 102 99 49 151 -30 31
-48 31 -74 4z"/>
<path d="M2295 1684 c-14 -15 -14 -18 0 -33 18 -21 19 -38 3 -44 -7 -2 -10 -8
-6 -12 4 -4 19 0 33 9 17 11 25 25 25 46 0 38 -31 57 -55 34z"/>
<path d="M1834 1655 c-22 -34 -10 -75 29 -93 34 -16 46 -9 23 13 -20 21 -20
31 0 39 10 4 14 15 12 33 -4 39 -41 43 -64 8z"/>
<path d="M870 2326 c0 -2 8 -10 18 -17 15 -13 16 -12 3 4 -13 16 -21 21 -21
13z"/>
</g>
</svg>
