<?xml version="1.0" standalone="no"?>
<!DOCTYPE svg PUBLIC "-//W3C//DTD SVG 20010904//EN"
 "http://www.w3.org/TR/2001/REC-SVG-20010904/DTD/svg10.dtd">
<svg version="1.0" xmlns="http://www.w3.org/2000/svg"
 width="512.000000pt" height="512.000000pt" viewBox="0 0 650.000000 300.000000"
 preserveAspectRatio="xMidYMid meet">

<g transform="translate(0.000000,512.000000) scale(0.150000,-0.150000)"
fill="rgb(40, 130, 250" stroke="none">
<path d="M2105 3495 c-280 -162 -511 -298 -512 -303 -2 -4 229 -141 513 -304
l515 -297 452 261 c249 143 483 278 520 300 l68 40 -518 299 c-285 164 -520
299 -523 299 -3 0 -234 -133 -515 -295z"/>
<path d="M1560 2324 l1 -379 413 -237 c227 -131 416 -238 420 -238 3 0 5 170
4 377 l-3 377 -405 234 c-223 128 -411 236 -417 239 -10 4 -13 -74 -13 -373z"/>
<path d="M3255 2460 l-410 -238 -3 -380 -2 -380 420 241 420 242 0 378 c0 207
-3 377 -7 376 -5 0 -192 -108 -418 -239z"/>
</g>
</svg>
