<?xml version="1.0" standalone="no"?>
<!DOCTYPE svg PUBLIC "-//W3C//DTD SVG 20010904//EN"
 "http://www.w3.org/TR/2001/REC-SVG-20010904/DTD/svg10.dtd">
<svg version="1.0" xmlns="http://www.w3.org/2000/svg"
 width="1200.000000pt" height="1200.000000pt" viewBox="0 0 1200.000000 1200.000000"
 preserveAspectRatio="xMidYMid meet">

<g transform="translate(0.000000,1200.000000) scale(0.100000,-0.100000)"
fill="rgb(0, 160, 255" stroke="none">
<path d="M6805 10526 c-2 -6 -16 -96 -31 -201 l-27 -190 -366 -1 c-231 0 -381
-4 -406 -11 -35 -10 -23 -11 91 -12 467 -4 1000 -101 1467 -267 87 -31 159
-55 161 -53 5 5 196 438 196 444 0 5 -142 60 -250 97 -285 98 -826 224 -835
194z"/>
<path d="M7990 9992 c-45 -92 -93 -190 -106 -219 l-23 -52 142 -70 c397 -195
801 -471 1112 -763 l64 -60 71 64 c39 34 74 64 79 66 11 4 271 -266 370 -385
124 -147 248 -313 341 -453 45 -69 84 -127 85 -129 4 -3 102 49 213 112 l42
24 -90 137 c-109 166 -232 331 -364 491 -119 143 -460 487 -601 607 -355 301
-756 562 -1141 744 l-111 52 -83 -166z"/>
<path d="M5653 10069 c-155 -11 -270 -35 -530 -111 -116 -34 -143 -45 -143
-60 0 -10 2 -18 4 -18 2 0 59 13 127 29 178 43 517 101 586 101 9 0 13 -14 13
-40 0 -47 -11 -45 158 -24 70 8 210 19 312 23 198 8 589 -4 604 -19 5 -5 -4
-84 -22 -199 -18 -104 -32 -196 -32 -205 0 -10 18 -18 58 -26 126 -25 365 -92
514 -143 l157 -54 96 220 c61 140 92 223 85 227 -31 19 -397 135 -535 169
-472 118 -986 164 -1452 130z m1572 -395 c148 -41 315 -97 315 -105 0 -18 -49
-119 -58 -119 -5 0 -42 11 -83 25 -66 23 -322 94 -391 109 -32 7 -34 18 -13
91 l16 53 62 -14 c34 -8 103 -26 152 -40z"/>
<path d="M7761 9459 c-57 -115 -101 -212 -99 -215 3 -2 67 -36 142 -74 622
-314 1175 -800 1568 -1380 50 -74 92 -136 94 -138 3 -5 82 36 88 47 12 19
-219 338 -369 509 -49 57 -105 121 -123 142 l-33 38 92 81 c50 45 95 81 99 81
11 0 160 -167 260 -290 89 -111 194 -254 258 -354 25 -39 46 -73 48 -74 4 -6
104 50 104 59 0 11 -161 249 -232 342 -58 76 -203 251 -297 357 -37 42 -41 44
-62 32 -20 -13 -27 -9 -100 64 -72 71 -77 79 -63 95 14 15 10 21 -43 72 -218
206 -559 456 -847 622 -83 47 -369 195 -378 195 -2 0 -50 -95 -107 -211z"/>
<path d="M3960 9418 c-92 -62 -278 -201 -365 -271 l-29 -25 46 -69 46 -70
-104 -93 c-57 -51 -104 -96 -104 -99 0 -4 5 -12 11 -18 9 -9 -3 -25 -47 -65
-111 -99 -264 -252 -264 -263 0 -7 9 -20 21 -31 21 -19 21 -19 73 41 250 291
549 554 854 752 45 30 82 59 82 64 0 18 -98 219 -107 219 -4 -1 -55 -33 -113
-72z"/>
<path d="M6715 9477 c-2 -7 -6 -37 -10 -67 -3 -30 -8 -64 -11 -76 -5 -18 3
-22 93 -38 136 -26 338 -78 461 -120 l103 -35 30 66 c16 37 28 72 25 79 -6 14
-263 100 -419 140 -196 50 -268 63 -272 51z"/>
<path d="M4625 9410 c-11 -5 -87 -39 -170 -75 -82 -36 -154 -70 -158 -74 -6
-6 47 -122 78 -169 1 -1 44 18 96 41 52 24 131 59 176 77 l81 33 -18 46 c-58
147 -50 136 -85 121z"/>
<path d="M5728 9178 l-58 -10 6 -42 c4 -22 7 -42 8 -42 1 -1 36 1 79 3 l77 6
0 48 c0 56 0 56 -112 37z"/>
<path d="M7619 9119 c-16 -34 -28 -63 -26 -66 3 -2 84 -44 181 -92 l176 -87
31 52 32 52 61 -36 c72 -42 197 -123 281 -182 33 -23 47 -30 30 -15 -42 37
-324 223 -420 277 -82 46 -301 158 -310 158 -2 0 -19 -27 -36 -61z"/>
<path d="M3234 8798 c-205 -218 -427 -513 -564 -748 -24 -41 -45 -77 -46 -79
-2 -2 -40 20 -85 48 -45 29 -82 51 -84 49 -15 -17 -162 -272 -193 -334 l-40
-80 113 -57 114 -57 -28 -67 c-64 -149 -201 -600 -201 -660 0 -13 151 -66 160
-55 4 4 19 58 34 121 15 62 48 176 72 253 50 154 41 145 123 112 19 -8 35 -13
37 -12 1 2 36 71 78 153 41 83 100 191 129 240 l55 90 -67 43 c-36 23 -78 48
-93 54 -16 7 -28 15 -28 18 0 5 9 21 74 127 28 46 164 252 237 358 57 84 198
253 291 350 48 51 88 96 88 100 0 10 -83 114 -91 115 -4 0 -42 -37 -85 -82z"/>
<path d="M6641 8748 c-25 -83 -4 -78 -216 -53 -78 9 -217 15 -346 15 -202 0
-217 -1 -221 -18 -4 -14 -18 -21 -53 -25 -95 -13 -282 -60 -410 -102 -139 -46
-375 -143 -375 -153 0 -4 27 -73 61 -154 l61 -146 42 17 c218 93 591 171 818
171 58 0 88 4 88 11 0 8 66 10 234 7 229 -3 235 -3 239 17 3 11 18 89 33 173
l29 154 40 -7 c58 -9 256 -60 363 -93 51 -17 94 -27 96 -23 3 3 13 30 24 59
15 38 17 54 9 57 -7 2 -39 13 -72 24 -85 28 -226 66 -320 86 -44 9 -87 19 -96
21 -11 3 -19 -8 -28 -38z"/>
<path d="M9381 8696 l-34 -35 113 -128 c145 -165 276 -335 393 -511 l93 -140
36 19 c20 10 39 23 43 29 11 18 -181 305 -337 503 -97 122 -247 291 -263 295
-6 1 -26 -13 -44 -32z"/>
<path d="M8420 8716 c0 -2 8 -10 18 -17 15 -13 16 -12 3 4 -13 16 -21 21 -21
13z"/>
<path d="M8460 8687 c0 -3 21 -22 47 -43 26 -21 44 -33 40 -27 -9 14 -87 77
-87 70z"/>
<path d="M8580 8585 c13 -14 26 -25 28 -25 3 0 -5 11 -18 25 -13 14 -26 25
-28 25 -3 0 5 -11 18 -25z"/>
<path d="M7287 8541 c-29 -53 -33 -71 -15 -71 13 0 316 -148 365 -179 l33 -21
-56 -85 c-31 -48 -54 -88 -53 -89 2 -2 33 -22 69 -46 36 -24 111 -78 167 -121
l101 -78 64 71 64 71 74 -64 c187 -160 397 -398 543 -616 l76 -111 43 27 c24
15 51 30 61 34 15 6 11 17 -34 89 -152 243 -403 527 -629 712 -52 43 -99 82
-104 87 -5 4 13 34 42 67 l51 59 -87 65 c-48 36 -126 91 -174 122 l-87 56 -41
-61 c-23 -33 -45 -59 -48 -57 -4 2 -86 42 -182 90 -96 48 -184 89 -195 92 -16
5 -26 -4 -48 -43z"/>
<path d="M8650 8525 c13 -14 26 -25 28 -25 3 0 -5 11 -18 25 -13 14 -26 25
-28 25 -3 0 5 -11 18 -25z"/>
<path d="M8800 8386 c0 -2 8 -10 18 -17 15 -13 16 -12 3 4 -13 16 -21 21 -21
13z"/>
<path d="M8855 8330 c10 -11 20 -20 23 -20 3 0 -3 9 -13 20 -10 11 -20 20 -23
20 -3 0 3 -9 13 -20z"/>
<path d="M4732 8253 c-124 -78 -279 -195 -381 -287 -46 -42 -87 -76 -91 -76
-4 0 -30 26 -58 59 -50 58 -51 59 -32 76 11 10 20 22 20 27 0 6 -28 49 -62 96
l-62 86 -114 -120 c-63 -65 -153 -166 -199 -224 -138 -171 -356 -511 -339
-528 11 -11 127 -80 442 -264 l32 -19 67 116 c36 63 70 117 75 120 4 3 18 -3
31 -14 l22 -18 87 106 c192 234 450 451 700 589 41 23 81 46 88 50 9 6 -5 42
-59 145 -39 75 -72 137 -73 137 -2 0 -44 -26 -94 -57z"/>
<path d="M8885 8266 c-17 -12 -14 -19 56 -97 125 -141 258 -313 359 -466 30
-46 59 -83 65 -83 6 0 19 6 28 13 16 11 10 23 -61 129 -43 64 -110 156 -148
204 -86 111 -263 314 -273 314 -4 0 -16 -6 -26 -14z"/>
<path d="M7495 8003 c-22 -32 -43 -63 -48 -70 -6 -8 16 -28 68 -63 42 -28 112
-80 155 -115 l79 -64 55 57 c31 31 56 62 56 69 0 6 -19 27 -42 46 -61 50 -268
197 -277 197 -4 0 -25 -26 -46 -57z"/>
<path d="M10295 7794 c-115 -57 -214 -105 -219 -107 -5 -1 30 -81 77 -177 267
-549 426 -1127 477 -1740 12 -144 14 -527 4 -700 l-7 -117 69 -7 c38 -4 148
-18 244 -31 96 -13 176 -23 177 -21 8 8 23 309 23 476 0 818 -188 1627 -544
2343 l-91 184 -210 -103z"/>
<path d="M9819 7517 l-206 -102 68 -140 c216 -447 353 -931 404 -1432 17 -158
24 -489 15 -673 l-5 -105 36 -3 c33 -3 37 0 43 25 15 60 17 625 4 765 l-13
137 60 5 c33 3 92 8 131 11 l71 5 6 -53 c28 -235 32 -625 11 -864 l-7 -71 67
-7 c37 -4 69 -5 72 -2 12 12 16 523 5 682 -36 515 -142 987 -328 1460 -63 160
-207 465 -220 464 -4 0 -101 -47 -214 -102z"/>
<path d="M9539 7340 c-15 -9 -11 -22 33 -112 60 -123 127 -284 180 -432 30
-85 36 -111 26 -117 -7 -5 -47 -16 -88 -25 -41 -10 -78 -20 -83 -24 -4 -3 9
-68 30 -143 l37 -137 52 6 51 6 12 -48 c41 -176 81 -522 81 -699 0 -112 1
-114 69 -115 l24 0 -7 -167 c-3 -93 -9 -178 -12 -190 -6 -21 -3 -23 34 -23 23
0 44 5 47 10 13 21 7 526 -9 685 -39 399 -133 795 -276 1155 -46 118 -170 380
-179 380 -3 0 -13 -5 -22 -10z"/>
<path d="M8861 7094 c-30 -13 -57 -26 -59 -28 -2 -2 24 -58 57 -125 34 -66 61
-125 61 -130 0 -5 -41 -23 -91 -41 -72 -26 -89 -36 -83 -49 36 -87 116 -310
130 -363 21 -77 18 -76 124 -53 102 22 96 26 119 -72 44 -191 63 -359 68 -618
3 -146 1 -294 -5 -355 -6 -58 -8 -108 -4 -111 4 -4 28 -10 53 -13 l46 -7 7 43
c3 24 9 114 13 201 l6 157 39 0 39 0 -3 92 c-2 62 -7 93 -15 96 -7 2 -13 -1
-13 -8 0 -6 5 -8 12 -4 7 5 8 3 3 -5 -5 -9 -10 -10 -18 -2 -7 7 -5 16 8 31 15
17 17 30 11 89 -4 38 -10 82 -13 98 -3 15 -7 42 -7 60 -1 17 -4 29 -9 26 -4
-2 -10 3 -14 12 -3 10 0 21 7 25 9 5 10 17 5 36 -4 16 -9 40 -11 54 -13 79
-17 97 -27 115 -12 21 -19 50 -10 42 3 -3 25 1 51 8 25 8 49 12 54 9 4 -3 8 2
8 10 0 9 -4 16 -10 16 -5 0 -6 7 -3 17 4 10 2 14 -5 9 -7 -4 -9 1 -7 15 8 40
-16 110 -40 119 -29 11 -39 26 -24 36 7 4 9 3 6 -3 -4 -6 2 -13 12 -16 17 -4
17 -2 6 37 -7 22 -19 55 -26 71 -7 17 -12 33 -11 38 1 4 -3 7 -9 7 -6 0 -9 6
-6 13 8 20 -11 59 -25 51 -10 -6 -10 -4 -2 7 16 21 -11 85 -30 70 -7 -6 -16
-8 -19 -4 -4 3 -7 1 -7 -6 0 -7 -4 -10 -9 -7 -5 3 -14 -1 -21 -9 -7 -8 -18
-15 -24 -15 -6 0 -4 5 4 11 12 9 12 10 -3 5 -10 -3 -23 -6 -28 -6 -6 0 -8 -4
-5 -9 3 -4 -6 -6 -19 -3 -14 2 -28 9 -32 15 -3 5 -1 7 5 3 6 -3 13 -2 17 4 3
5 1 10 -5 10 -6 0 -8 5 -5 10 3 6 1 10 -5 10 -6 0 -8 5 -5 11 4 5 0 18 -8 27
-9 9 -16 22 -17 27 -10 49 -92 214 -107 215 -7 0 -10 7 -7 15 8 20 -1 18 -65
-11z m139 -130 c0 -8 -19 -13 -24 -6 -3 5 1 9 9 9 8 0 15 -2 15 -3z m14 -65
c-2 -4 2 -11 10 -16 12 -7 12 -10 -2 -23 -14 -13 -15 -12 -9 3 4 11 1 20 -8
23 -19 8 -19 21 0 21 8 0 12 -4 9 -8z m39 -94 c4 -8 1 -17 -5 -21 -7 -4 -8 -3
-4 4 4 7 2 12 -3 12 -6 0 -11 5 -11 10 0 15 17 12 23 -5z m191 -50 c11 -8 15
-15 10 -15 -6 0 -19 7 -30 15 -10 8 -14 14 -9 14 6 0 19 -6 29 -14z m-47 -10
c0 -8 -4 -12 -9 -9 -5 3 -6 10 -3 15 9 13 12 11 12 -6z m-119 -20 c-3 -3 -9 2
-12 12 -6 14 -5 15 5 6 7 -7 10 -15 7 -18z m78 -2 c-7 -7 -26 7 -26 19 0 6 6
6 15 -2 9 -7 13 -15 11 -17z m-46 -3 c0 -5 -2 -10 -4 -10 -3 0 -8 5 -11 10 -3
6 -1 10 4 10 6 0 11 -4 11 -10z m2 -38 c3 -11 0 -19 -7 -19 -7 0 -10 8 -7 19
2 10 6 18 7 18 1 0 5 -8 7 -18z m198 -86 c0 -3 -4 -8 -10 -11 -5 -3 -10 -1
-10 4 0 6 5 11 10 11 6 0 10 -2 10 -4z m-160 -56 c6 -11 8 -20 6 -20 -3 0 -10
9 -16 20 -6 11 -8 20 -6 20 3 0 10 -9 16 -20z m47 -142 c-3 -8 -6 -5 -6 6 -1
11 2 17 5 13 3 -3 4 -12 1 -19z m18 -88 c-3 -5 -1 -10 6 -10 7 0 10 -3 6 -6
-9 -9 -28 6 -22 17 4 5 8 9 11 9 3 0 2 -4 -1 -10z m39 -4 c-3 -8 -1 -17 5 -21
6 -3 10 -16 10 -28 -1 -20 -2 -21 -6 -2 -3 11 -10 25 -15 32 -5 7 -7 17 -3 23
9 15 15 12 9 -4z m-19 -56 c10 -11 16 -20 13 -20 -3 0 -13 9 -23 20 -10 11
-16 20 -13 20 3 0 13 -9 23 -20z m55 -30 c0 -5 -2 -10 -4 -10 -3 0 -8 5 -11
10 -3 6 -1 10 4 10 6 0 11 -4 11 -10z m-33 -24 c-3 -7 -1 -18 4 -23 6 -6 4
-10 -5 -10 -7 0 -12 7 -11 16 2 9 4 19 4 24 1 4 4 7 7 7 3 0 4 -6 1 -14z m7
-54 c3 -5 -1 -9 -9 -9 -8 0 -12 4 -9 9 3 4 7 8 9 8 2 0 6 -4 9 -8z m36 -12 c0
-5 -2 -10 -4 -10 -3 0 -8 5 -11 10 -3 6 -1 10 4 10 6 0 11 -4 11 -10z m-26
-18 c3 -5 -1 -9 -9 -9 -8 0 -15 4 -15 9 0 4 4 8 9 8 6 0 12 -4 15 -8z m27 -25
c-10 -9 -11 -8 -5 6 3 10 9 15 12 12 3 -3 0 -11 -7 -18z m16 -29 c-3 -8 -6 -5
-6 6 -1 11 2 17 5 13 3 -3 4 -12 1 -19z m0 -73 c0 -8 -4 -12 -9 -9 -4 3 -8 9
-8 15 0 5 4 9 8 9 5 0 9 -7 9 -15z m15 -53 c3 -11 0 -19 -8 -19 -8 0 -13 10
-12 23 2 26 13 23 20 -4z m1 -47 c-3 -9 -8 -14 -10 -11 -3 3 -2 9 2 15 9 16
15 13 8 -4z m12 -34 c-3 -6 -11 -8 -17 -5 -6 4 -5 9 3 15 16 10 23 4 14 -10z
m-35 -57 c0 -8 -5 -12 -10 -9 -6 4 -8 11 -5 16 9 14 15 11 15 -7z m33 -15 c-8
-8 -13 -7 -18 2 -5 8 -4 10 3 5 7 -4 12 -2 12 5 0 7 3 9 7 6 4 -4 2 -12 -4
-18z m-20 -89 c-3 -12 -8 -19 -11 -16 -5 6 5 36 12 36 2 0 2 -9 -1 -20z"/>
<path d="M3337 6952 c-123 -261 -198 -514 -248 -837 -18 -118 -20 -164 -15
-295 6 -150 22 -330 31 -338 2 -2 93 6 202 18 109 12 221 25 248 27 l50 5 0
287 c1 305 9 392 62 646 20 99 86 317 117 387 7 14 -1 22 -35 37 -24 10 -98
45 -164 76 -131 62 -184 85 -195 85 -4 0 -28 -44 -53 -98z"/>
<path d="M8687 6714 c-3 -5 8 -41 25 -79 16 -39 50 -131 74 -205 24 -74 47
-141 49 -148 3 -7 9 -11 14 -8 11 7 -22 119 -86 292 -45 125 -66 164 -76 148z"/>
<path d="M2170 6578 c0 -8 -7 -66 -15 -129 -40 -302 -40 -666 1 -983 8 -65 13
-121 10 -124 -3 -3 -85 -14 -182 -26 l-176 -21 6 -65 c5 -57 54 -341 59 -347
2 -1 63 12 137 28 74 17 156 34 181 38 l45 7 42 -138 c23 -76 69 -208 102
-292 l61 -155 67 25 c37 14 72 27 79 29 8 2 -6 55 -43 160 -94 272 -157 559
-184 848 -9 87 -17 127 -25 127 -18 0 -24 58 -31 285 -7 202 4 426 30 612 l12
92 -75 17 c-42 9 -81 19 -88 21 -7 3 -13 -1 -13 -9z"/>
<path d="M8595 5520 c-4 -39 -17 -122 -29 -184 l-22 -115 20 -5 c12 -3 33 -6
47 -6 24 0 27 4 33 53 3 28 9 114 13 190 l6 137 -30 0 c-31 0 -31 0 -38 -70z"/>
<path d="M3595 5225 c-27 -7 -126 -29 -220 -50 -93 -21 -173 -41 -177 -44 -9
-7 30 -141 40 -141 4 0 106 29 227 64 211 61 220 64 217 87 -5 41 -22 99 -30
98 -4 0 -29 -7 -57 -14z"/>
<path d="M8468 4973 c-20 -59 -68 -178 -106 -263 -104 -232 -143 -323 -145
-340 -1 -8 -5 -17 -8 -20 -3 -3 -25 -41 -49 -85 -24 -44 -61 -108 -81 -142
-21 -33 -35 -64 -32 -67 4 -3 2 -6 -4 -6 -6 0 -32 -33 -59 -72 -26 -40 -50
-75 -53 -78 -3 -3 -17 -17 -30 -32 -21 -24 -22 -30 -10 -45 12 -16 12 -17 -2
-5 -14 10 -23 4 -64 -44 l-48 -56 35 -35 c21 -20 41 -32 47 -28 28 17 190 209
184 218 -3 6 -1 7 4 4 10 -6 49 40 46 53 -1 3 5 9 13 13 28 16 190 273 259
412 39 77 71 142 73 145 2 2 72 -30 156 -72 l153 -76 43 119 c23 66 55 168 70
227 l27 107 -151 49 c-83 27 -152 50 -154 51 -2 1 5 35 14 75 9 39 12 76 8 80
-5 5 -29 11 -54 15 l-45 6 -37 -108z"/>
<path d="M3730 4910 c0 -5 -6 -7 -13 -4 -8 3 -19 -1 -25 -9 -9 -11 -8 -14 3
-14 8 0 11 5 8 10 -4 6 0 8 10 4 9 -3 19 -2 22 4 4 5 11 6 17 3 7 -4 8 -2 4 4
-9 14 -26 16 -26 2z"/>
<path d="M3656 4883 c-4 -5 -13 -8 -18 -8 -6 0 -12 -6 -14 -13 -1 -7 0 -8 2
-3 3 6 11 8 18 5 8 -3 16 2 19 10 7 17 4 20 -7 9z"/>
<path d="M3747 4882 c7 -5 14 -20 15 -34 1 -16 7 -24 15 -21 7 3 13 9 13 15 0
5 -5 6 -11 3 -6 -4 -10 -1 -8 6 3 29 -2 39 -18 39 -13 0 -14 -3 -6 -8z"/>
<path d="M9116 4816 c-10 -42 -21 -76 -26 -76 -5 0 -37 9 -71 20 -35 10 -64
18 -65 17 -1 -1 -14 -47 -28 -102 -26 -102 -91 -306 -107 -337 -8 -15 1 -23
50 -48 l60 -30 -44 -95 c-124 -268 -322 -564 -550 -821 l-44 -50 62 -62 62
-62 64 76 c68 81 230 300 238 322 3 7 -2 21 -10 30 -15 16 -14 21 14 62 174
258 345 619 433 915 46 157 76 288 68 296 -4 4 -25 10 -48 14 l-40 6 -18 -75z"/>
<path d="M3666 4853 c-6 -14 -5 -15 5 -6 7 7 10 15 7 18 -3 3 -9 -2 -12 -12z"/>
<path d="M3570 4852 c0 -7 -4 -10 -10 -7 -5 3 -10 1 -10 -5 0 -6 -4 -9 -9 -5
-5 3 -12 1 -16 -5 -3 -5 -16 -10 -27 -10 -32 0 -11 -14 23 -16 19 -1 29 3 29
13 0 8 5 11 10 8 6 -3 10 -2 10 3 0 6 10 8 21 5 20 -6 20 -7 -7 -17 -26 -11
-25 -12 23 -11 43 0 49 3 45 18 -4 17 -5 17 -18 0 -10 -13 -13 -14 -12 -4 2 8
-6 17 -17 19 -11 2 -23 9 -27 16 -6 8 -8 7 -8 -2z"/>
<path d="M3772 4808 c-14 -14 -16 -32 -3 -23 5 3 12 1 16 -5 3 -5 -1 -10 -9
-10 -9 0 -16 -7 -16 -15 0 -8 7 -15 16 -15 8 0 13 -4 9 -9 -3 -6 4 -9 15 -8
13 1 16 5 10 11 -6 6 -5 15 3 25 11 14 10 14 -6 2 -17 -14 -18 -13 -15 5 1 10
8 23 13 27 6 5 2 6 -9 3 -13 -5 -17 -2 -12 9 7 18 4 19 -12 3z"/>
<path d="M3410 4792 c0 -6 6 -13 13 -15 9 -4 9 -8 -1 -15 -11 -8 -11 -10 0
-15 19 -7 21 28 2 44 -9 7 -14 8 -14 1z"/>
<path d="M3351 4761 c-16 -12 -20 -21 -12 -25 14 -9 33 2 26 14 -3 5 3 13 12
19 10 6 14 10 8 10 -5 1 -21 -8 -34 -18z"/>
<path d="M3427 4723 c-4 -3 -7 -11 -7 -17 0 -6 5 -5 12 2 6 6 9 14 7 17 -3 3
-9 2 -12 -2z"/>
<path d="M3378 4680 c15 -18 16 -34 0 -24 -7 5 -8 3 -2 -7 5 -8 9 -17 9 -21 0
-3 3 -9 8 -12 4 -3 5 -3 2 1 -3 3 0 12 6 20 6 7 8 13 5 13 -4 0 -1 6 6 14 7 8
16 12 21 9 4 -2 7 1 7 6 0 13 -10 14 -30 1 -9 -6 -20 -5 -30 3 -12 9 -13 9 -2
-3z"/>
<path d="M3423 4647 c3 -9 1 -18 -6 -21 -9 -3 -8 -5 1 -5 8 -1 10 -6 6 -13 -4
-7 -3 -10 1 -5 14 12 16 45 3 53 -7 5 -9 2 -5 -9z"/>
<path d="M3849 4658 c-1 -2 -2 -18 -3 -35 -2 -25 3 -34 18 -40 34 -11 46 -12
40 -2 -3 5 -14 9 -25 9 -10 0 -19 5 -19 11 0 5 4 8 9 5 5 -3 11 1 14 9 4 9 1
12 -9 8 -10 -3 -12 0 -8 10 4 12 -12 37 -17 25z"/>
<path d="M3410 4575 c0 -2 6 -8 13 -14 10 -8 14 -7 14 2 0 8 -6 14 -14 14 -7
0 -13 -1 -13 -2z"/>
<path d="M3465 4551 c-3 -5 -1 -12 5 -16 17 -11 11 -24 -10 -20 -12 2 -18 0
-14 -6 3 -6 8 -8 12 -5 3 3 11 -2 18 -12 10 -14 15 -15 26 -4 11 11 10 12 -3
7 -12 -5 -16 1 -16 24 0 17 4 28 9 25 4 -3 8 0 8 5 0 13 -27 14 -35 2z"/>
<path d="M3506 4544 c-8 -21 -8 -34 2 -34 4 0 9 11 10 25 2 28 -3 32 -12 9z"/>
<path d="M3930 4510 c-9 -6 -10 -10 -3 -10 6 0 15 5 18 10 8 12 4 12 -15 0z"/>
<path d="M3943 4475 c0 -8 4 -12 8 -10 3 3 12 -1 18 -9 9 -10 8 -15 -3 -19 -8
-3 -16 -2 -18 4 -2 5 -8 1 -15 -10 -10 -16 -9 -20 3 -25 8 -3 13 -2 10 3 -3 5
1 12 10 15 8 3 12 2 9 -3 -9 -15 13 -23 32 -11 16 9 15 10 -4 5 -18 -5 -22 -3
-17 9 3 9 10 13 15 10 5 -3 4 6 -3 20 -6 15 -13 24 -16 21 -3 -3 -10 0 -17 5
-8 7 -12 5 -12 -5z"/>
<path d="M3500 4465 c-10 -12 -10 -19 -2 -27 7 -7 12 -10 13 -7 0 2 2 14 5 27
5 26 1 28 -16 7z"/>
<path d="M3503 4409 c9 -6 15 -14 12 -20 -4 -5 1 -9 9 -9 14 0 14 3 4 20 -7
11 -20 20 -28 20 -12 -1 -11 -3 3 -11z"/>
<path d="M3554 4379 c2 -13 -2 -31 -8 -39 -9 -13 -9 -13 6 -2 9 7 15 22 13 34
-6 30 -16 37 -11 7z"/>
<path d="M4007 4363 c10 -3 10 -10 2 -26 -11 -21 -10 -21 6 -5 18 17 13 39 -8
37 -9 0 -9 -2 0 -6z"/>
<path d="M4047 4354 c-8 -8 3 -34 15 -34 7 0 6 5 -1 13 -6 8 -8 17 -4 20 3 4
4 7 1 7 -2 0 -7 -3 -11 -6z"/>
<path d="M3570 4335 c-12 -14 -7 -20 14 -16 4 1 5 -10 2 -24 -4 -14 -2 -25 2
-25 10 0 11 65 1 74 -3 4 -12 0 -19 -9z"/>
<path d="M4086 4265 c-3 -8 -1 -17 5 -20 5 -4 6 -12 2 -18 -4 -6 -7 -23 -8
-37 -1 -21 3 -26 21 -26 13 0 20 4 17 10 -4 5 0 7 8 4 10 -4 14 3 14 28 0 19
-3 34 -7 34 -8 0 -12 -15 -9 -38 2 -10 -2 -10 -18 0 -11 7 -17 15 -13 18 4 3
14 14 22 25 14 18 14 19 -2 7 -10 -8 -19 -9 -22 -3 -3 5 -1 11 6 13 8 3 9 6 1
11 -6 4 -13 0 -17 -8z m28 -86 c-3 -5 -10 -7 -15 -3 -5 3 -7 10 -3 15 3 5 10
7 15 3 5 -3 7 -10 3 -15z"/>
<path d="M2597 4213 c-47 -21 -58 -30 -54 -45 11 -41 153 -278 167 -278 8 -1
40 -40 71 -88 266 -411 706 -841 1128 -1104 l60 -38 27 46 c14 25 25 46 23 47
-64 37 -292 198 -374 263 -141 113 -416 387 -529 529 -124 155 -289 406 -369
563 -38 72 -74 132 -80 131 -7 0 -38 -12 -70 -26z"/>
<path d="M3637 4233 c-14 -13 -7 -23 16 -22 12 0 16 3 9 6 -6 2 -10 9 -6 14 6
10 -9 12 -19 2z"/>
<path d="M3640 4194 c0 -17 27 -37 34 -25 4 5 2 12 -4 16 -5 3 -10 3 -10 -2 0
-4 -5 -1 -10 7 -5 8 -10 10 -10 4z"/>
<path d="M4163 4187 c0 -8 6 -14 14 -14 9 0 10 4 2 14 -6 7 -12 13 -14 13 -1
0 -2 -6 -2 -13z"/>
<path d="M3726 4148 c3 -5 10 -6 15 -2 7 4 9 -6 6 -25 -3 -17 -2 -29 2 -27 4
3 8 18 9 35 2 24 -1 29 -17 28 -11 0 -17 -5 -15 -9z"/>
<path d="M4198 4153 c10 -4 10 -8 1 -19 -6 -8 -8 -14 -5 -14 4 0 1 -10 -5 -22
-12 -22 -11 -22 14 2 19 19 23 29 16 42 -5 10 -15 18 -22 17 -9 0 -8 -2 1 -6z"/>
<path d="M4163 4121 c1 -16 5 -27 8 -25 10 6 8 54 -2 54 -4 0 -7 -13 -6 -29z"/>
<path d="M3715 4100 c3 -5 8 -10 11 -10 2 0 4 5 4 10 0 6 -5 10 -11 10 -5 0
-7 -4 -4 -10z"/>
<path d="M3744 4068 c2 -7 7 -13 12 -13 18 0 34 -17 28 -27 -5 -7 -2 -8 7 -2
27 17 39 13 35 -12 -3 -16 0 -24 10 -24 8 0 14 -5 14 -11 0 -5 -4 -7 -10 -4
-5 3 -10 1 -10 -4 0 -6 5 -11 11 -11 5 0 8 -3 5 -8 -2 -4 2 -16 10 -27 11 -15
17 -16 26 -7 16 16 31 15 21 0 -14 -23 -11 -36 10 -55 11 -10 17 -12 13 -5 -6
9 -2 12 10 10 13 -2 18 2 15 12 -2 8 -4 20 -4 26 0 6 -8 9 -18 7 -14 -4 -17 0
-14 16 3 18 1 20 -13 12 -27 -15 -55 15 -40 43 6 11 7 18 3 14 -12 -11 -35 11
-29 27 3 7 1 16 -5 20 -15 9 -14 28 2 19 6 -4 9 -3 4 1 -12 14 -46 16 -67 5
-12 -7 -20 -6 -23 0 -3 6 -4 5 -3 -2z m69 -12 c5 -12 -2 -14 -31 -7 -2 1 0 6
3 11 9 14 22 12 28 -4z m58 -123 c13 -16 12 -17 -3 -4 -17 13 -22 21 -14 21 2
0 10 -8 17 -17z m64 -41 c-11 -11 -32 -10 -32 3 0 7 8 10 19 7 10 -2 16 -7 13
-10z"/>
<path d="M4081 4076 c2 -2 18 -6 34 -10 22 -5 26 -4 15 4 -14 9 -59 15 -49 6z"/>
<path d="M4105 4039 c-11 -16 -1 -19 13 -3 7 8 8 14 3 14 -5 0 -13 -5 -16 -11z"/>
<path d="M3800 4002 c0 -11 4 -23 8 -26 10 -6 9 30 -1 40 -4 4 -7 -2 -7 -14z"/>
<path d="M3896 3988 c3 -4 -2 -8 -11 -8 -13 0 -14 -2 -3 -14 11 -12 13 -12 16
0 2 8 7 12 11 10 4 -3 8 1 8 8 0 7 -6 13 -13 13 -7 0 -11 -4 -8 -9z"/>
<path d="M4013 3987 c4 -10 7 -21 7 -23 0 -3 5 -2 10 1 19 12 10 -7 -12 -27
-20 -17 -19 -17 10 2 17 12 32 26 32 31 0 6 -4 8 -9 4 -5 -3 -17 3 -27 12 -17
17 -18 17 -11 0z"/>
<path d="M4252 3792 l-151 -167 32 -28 c18 -15 84 -64 148 -108 306 -215 604
-349 974 -439 149 -37 349 -70 359 -59 2 2 15 79 28 172 l25 167 -21 5 c-12 3
-61 14 -111 25 -386 88 -766 282 -1071 547 l-62 53 -150 -168z"/>
<path d="M3960 3916 c0 -2 7 -7 16 -10 8 -3 12 -2 9 4 -6 10 -25 14 -25 6z"/>
<path d="M6995 3136 c-171 -87 -302 -138 -485 -191 l-115 -33 0 -34 c0 -32 1
-33 41 -31 101 4 391 93 607 185 65 28 119 49 121 47 2 -2 34 -74 71 -159 93
-215 79 -195 126 -168 21 12 39 26 39 31 0 15 -231 437 -238 436 -4 -1 -79
-38 -167 -83z"/>
<path d="M3085 2993 l-110 -104 100 -94 c55 -52 105 -95 111 -95 9 0 109 104
180 189 l25 30 -74 71 c-41 38 -85 78 -98 89 l-24 18 -110 -104z"/>
<path d="M8240 2623 c-132 -115 -382 -296 -507 -369 -18 -10 -33 -21 -33 -24
0 -3 22 -51 50 -107 l49 -103 -62 -35 c-167 -93 -485 -222 -727 -294 -158 -47
-415 -105 -548 -122 -86 -12 -93 -14 -88 -33 2 -12 13 -92 22 -178 16 -132 21
-158 35 -158 9 0 70 11 135 24 680 139 1281 411 1834 831 125 96 319 264 382
331 l26 29 -102 110 -103 109 -69 -62 c-38 -34 -71 -62 -74 -62 -3 0 -30 34
-60 76 -83 114 -73 112 -160 37z"/>
<path d="M4131 2563 c-28 -53 -48 -100 -44 -104 24 -23 327 -164 446 -209 140
-51 363 -117 469 -140 32 -6 60 -15 62 -19 3 -4 -11 -67 -30 -140 -20 -74 -32
-137 -27 -141 10 -11 251 -47 398 -60 61 -5 201 -10 313 -10 l202 0 0 150 0
150 -80 0 -80 0 0 43 0 44 199 9 c110 5 202 11 205 14 3 3 2 38 -1 78 l-6 71
-46 -7 c-82 -13 -638 -8 -746 6 -369 49 -725 153 -1044 303 -68 33 -127 59
-131 59 -4 0 -30 -43 -59 -97z"/>
<path d="M7950 1693 c-177 -108 -508 -262 -737 -344 -51 -18 -90 -35 -88 -37
2 -2 25 3 51 12 26 9 53 16 59 16 11 0 45 -98 45 -128 0 -6 -37 -23 -82 -37
-104 -33 -422 -115 -447 -115 -20 0 -25 13 -37 93 -6 43 -9 48 -28 43 -11 -3
-49 -11 -83 -18 -56 -10 -62 -14 -58 -32 3 -12 19 -113 35 -226 40 -274 33
-252 78 -244 224 40 683 181 942 289 257 108 674 327 668 351 -5 18 -233 424
-238 423 -3 0 -39 -21 -80 -46z"/>
<path d="M7035 1290 c-13 -5 -14 -9 -5 -9 8 0 24 4 35 9 13 5 14 9 5 9 -8 0
-24 -4 -35 -9z"/>
</g>
</svg>
